<?xml version="1.0" encoding="utf-8"?>
<!-- Generator: Adobe Illustrator 16.0.0, SVG Export Plug-In . SVG Version: 6.00 Build 0)  -->
<!DOCTYPE svg PUBLIC "-//W3C//DTD SVG 1.1//EN" "http://www.w3.org/Graphics/SVG/1.1/DTD/svg11.dtd">
<svg version="1.1" id="Layer_1" xmlns="http://www.w3.org/2000/svg" xmlns:xlink="http://www.w3.org/1999/xlink" x="0px" y="0px"
	 width="96px" height="96px" viewBox="0 0 96 96" enable-background="new 0 0 96 96" xml:space="preserve">
<path d="M94.008,31.339c-0.845-0.844-1.989-1.317-3.183-1.317H62.883v-4.662H60.77l-6.114,4.662H47.91l12.842-9.792h2.131v-3.451
	H0.675l0.001,0.001v3.45h2.131l28.167,21.479v5.145L2.788,25.359H0.676v35.321h30.298v0.541h0.019v13.5c0,2.485,2.015,4.5,4.5,4.5
	h55.333c2.485,0,4.5-2.015,4.5-4.5v-40.2C95.325,33.328,94.852,32.184,94.008,31.339z M90.826,74.722H35.493V43.303h1.879
	l25.787,19.666l25.787-19.666h1.88V74.722z M90.826,37.591h-1.896L63.159,57.243L37.389,37.591h-1.896v-3.069h-0.001h0.001h55.333
	V37.591z"/>
</svg>
